<svg width="64" height="64" xmlns="http://www.w3.org/2000/svg">
 <defs>
  <linearGradient y2="0.96019" y1="-0.00533" x2="0.5" x1="0.5" id="uCZz3JcUOJjrtrvOyVUpab">
   <stop stop-color="#a4a4a4" offset="0"/>
   <stop stop-color="gray" offset="0.619"/>
   <stop stop-color="#6f6f6f" offset="1"/>
  </linearGradient>
 </defs>
 <g>
  <title>Layer 1</title>
  <path id="svg_2" d="m58,32c0,13.35 -10.05,24.34 -23,25.83c-0.98,0.11 -1.99,0.17 -3,0.17c-1.71,0 -3.38,-0.17 -5,-0.49c-11.97,-2.32 -21,-12.86 -21,-25.51c0,-14.36 11.64,-26 26,-26s26,11.64 26,26z" fill="url(#uCZz3JcUOJjrtrvOyVUpab)"/>
  <path id="svg_3" d="m22.973,57.169c-0.006,-0.002 -0.013,-0.004 -0.019,-0.006c0.007,0.002 0.013,0.004 0.019,0.006z" fill="#fff"/>
  <path id="svg_4" d="m40,56.727l0,-6.266c0,-2.733 -1.831,-6.361 -4.341,-7.652c9.12,-0.931 13.472,-5.408 13.472,-11.485c0,-2.614 -1.125,-5.14 -3.035,-7.269c0.638,-2.114 1.44,-6.451 -0.233,-8.098c-4.119,0 -6.606,2.636 -7.195,3.341c-2.053,-0.696 -4.311,-1.088 -6.679,-1.088c-2.363,0 -4.613,0.392 -6.661,1.084c-0.597,-0.71 -3.081,-3.337 -7.191,-3.337c-1.666,1.645 -0.873,5.964 -0.242,8.082c-1.922,2.134 -3.054,4.667 -3.054,7.285c0,6.081 4.359,10.561 13.493,11.487c-1.584,0.816 -2.88,2.544 -3.63,4.421c-1.394,0.216 -2.875,0.273 -3.865,0.273c-2.041,0 -2.555,-0.32 -3.648,-1.733c-1.097,-1.41 -2.263,-2.361 -3.669,-2.753c-0.761,-0.079 -1.264,0.505 -0.604,1.016c2.226,1.537 2.382,4.049 3.28,5.692c0.81,1.478 2.479,2.273 4.355,2.273c0.469,0 2.334,0 3.447,0l0,4.737c0,0.25 3.998,1.319 7.998,1.319c4.553,0 8.002,-1.223 8.002,-1.329z" fill="#fff"/>
 </g>
</svg>