<svg width="64" height="64" xmlns="http://www.w3.org/2000/svg">
 <defs>
  <linearGradient spreadMethod="reflect" y2="0.07684" y1="1.07684" x2="0.5" x1="0.5" id="jAVUMfCM1liBjYZwQpghOb">
   <stop stop-color="#155cde" offset="0"/>
   <stop stop-color="#1f7fe5" offset="0.278"/>
   <stop stop-color="#279ceb" offset="0.569"/>
   <stop stop-color="#2cafef" offset="0.82"/>
   <stop stop-color="#2eb5f0" offset="1"/>
  </linearGradient>
 </defs>
 <g>
  <title>Layer 1</title>
  <path id="svg_2" d="m50,12l-36,0c-2.209,0 -4,1.791 -4,4l0,36c0,2.209 1.791,4 4,4l36,0c2.209,0 4,-1.791 4,-4l0,-36c0,-2.209 -1.791,-4 -4,-4z" fill="url(#jAVUMfCM1liBjYZwQpghOb)"/>
  <path id="svg_3" d="m19,28l2,0c1.105,0 2,0.895 2,2l0,17c0,1.105 -0.895,2 -2,2l-2,0c-1.105,0 -2,-0.895 -2,-2l0,-17c0,-1.105 0.895,-2 2,-2zm0.981,-3l-0.033,0c-1.79,0 -2.948,-1.336 -2.948,-3c0,-1.706 1.195,-3 3.019,-3c1.823,0 2.948,1.294 2.981,3c0,1.664 -1.158,3 -3.019,3zm25.019,24l-2,0c-1.105,0 -2,-0.895 -2,-2l0,-9.372c0,-2.749 -1.506,-4.624 -4.239,-4.624c-1.953,0 -3.133,1.265 -3.626,2.485c-0.181,0.44 -0.135,1.651 -0.135,2.261l0,9.25c0,1.105 -0.888,2 -1.993,2l-2.007,0c-1.105,0 -2,-0.895 -2,-2l0,-17c0,-1.105 0.895,-2 2,-2l2.007,0c1.105,0 2,0.895 2,2l0,1.021c0.904,-1.396 2.557,-3.021 6.166,-3.021c4.473,0 7.827,2.563 7.827,8.842l0,10.158c0,1.105 -0.895,2 -2,2z" fill="#fff"/>
 </g>
</svg>