<svg width="64" height="64" xmlns="http://www.w3.org/2000/svg">
 <defs>
  <linearGradient y2="0.01494" y1="1.21808" x2="0.5" x1="0.5" id="nT5WH7nXAOiS46rXmee3Ob">
   <stop stop-color="#155cde" offset="0"/>
   <stop stop-color="#1f7fe5" offset="0.278"/>
   <stop stop-color="#279ceb" offset="0.569"/>
   <stop stop-color="#2cafef" offset="0.82"/>
   <stop stop-color="#2eb5f0" offset="1"/>
  </linearGradient>
 </defs>
 <g>
  <title>Layer 1</title>
  <path id="svg_2" d="m58,32c0,13.35 -10.05,24.34 -23,25.83c-0.98,0.11 -1.99,0.17 -3,0.17c-1.71,0 -3.38,-0.17 -5,-0.49c-11.97,-2.32 -21,-12.86 -21,-25.51c0,-14.36 11.64,-26 26,-26s26,11.64 26,26z" fill="url(#nT5WH7nXAOiS46rXmee3Ob)"/>
  <path id="svg_3" d="m42.8,36.05l-0.76,2c-0.44,1.17 -1.58,1.95 -2.85,1.95l-4.19,0l0,17.83c-0.98,0.11 -1.99,0.17 -3,0.17c-1.71,0 -3.38,-0.17 -5,-0.49l0,-17.51l-2.95,0c-1.69,0 -3.05,-1.34 -3.05,-3l0,-2c0,-1.66 1.36,-3 3.05,-3l2.95,0l0,-6c0,-5.51 4.49,-10 10,-10l3,0c2.21,0 4,1.79 4,4s-1.79,4 -4,4l-3,0c-1.1,0 -2,0.9 -2,2l0,6l4.95,0c2.13,0 3.6,2.09 2.85,4.05z" fill="#fff"/>
 </g>
</svg>