<svg width="64" height="64" xmlns="http://www.w3.org/2000/svg">
 <defs>
  <linearGradient y2="0.99998" y1="0" x2="0.49999" x1="0.49999" id="AhngXQ8Zf2VLA52L6fLwQb">
   <stop stop-color="#00d772" offset="0"/>
   <stop stop-color="#00b26e" offset="0.996"/>
   <stop stop-color="#00b26e" offset="1"/>
  </linearGradient>
  <linearGradient y2="1.48982" y1="0" x2="0.5" x1="0.5" id="AhngXQ8Zf2VLA52L6fLwQc">
   <stop stop-color="#00e67a" offset="0"/>
   <stop stop-color="#00c177" offset="0.996"/>
   <stop stop-color="#00c177" offset="1"/>
  </linearGradient>
  <linearGradient y2="1.0108" y1="0.37241" x2="1.62939" x1="-0.12467" id="AhngXQ8Zf2VLA52L6fLwQd">
   <stop stop-color="#00c267" offset="0"/>
   <stop stop-color="#009d61" offset="0.996"/>
   <stop stop-color="#009d61" offset="1"/>
  </linearGradient>
 </defs>
 <g>
  <title>Layer 1</title>
  <path id="svg_2" d="m29.947,7.082c-12.214,0.975 -22.057,10.95 -22.888,23.174c-0.309,4.552 0.603,8.865 2.44,12.647l-3.365,12.787c-0.507,1.926 1.25,3.683 3.176,3.176l13.598,-3.579c3.66,1.43 7.733,2.034 11.999,1.546c11.801,-1.349 21.144,-11.084 22.021,-22.93c1.139,-15.353 -11.61,-28.048 -26.981,-26.821z" fill="#fff"/>
  <path id="svg_3" d="m13.556,43.205c0.122,-0.462 0.074,-0.952 -0.135,-1.382l-0.323,-0.666c-1.59,-3.274 -2.298,-6.95 -2.047,-10.629c0.698,-10.274 8.959,-18.64 19.215,-19.458c0.577,-0.047 1.16,-0.07 1.734,-0.07c5.817,0 11.428,2.447 15.391,6.715c4.018,4.326 5.988,9.97 5.55,15.894c-0.73,9.854 -8.678,18.129 -18.486,19.251c-0.817,0.093 -1.643,0.14 -2.455,0.14l0,0c-2.624,0 -5.192,-0.484 -7.635,-1.438l-0.607,-0.237c-0.394,-0.154 -0.827,-0.179 -1.237,-0.071l-10.25,2.697c-0.741,0.195 -1.416,-0.481 -1.222,-1.222l2.507,-9.524z" fill="url(#AhngXQ8Zf2VLA52L6fLwQb)"/>
  <path id="svg_4" clip-rule="evenodd" d="m25.611,21.115c-0.479,-1.06 -0.983,-1.082 -1.44,-1.101c-0.373,-0.015 -0.799,-0.014 -1.225,-0.014c-0.426,0 -1.119,0.16 -1.706,0.797s-2.24,2.177 -2.24,5.31s2.292,6.16 2.612,6.584c0.32,0.424 4.426,7.058 10.928,9.611c5.403,2.121 6.503,1.699 7.677,1.593c1.173,-0.106 3.785,-1.539 4.318,-3.026s0.533,-2.761 0.374,-3.026c-0.16,-0.266 -0.587,-0.424 -1.226,-0.744c-0.295,-0.147 -1.928,-0.949 -3.717,-1.813c-0.826,-0.399 -1.818,-0.186 -2.405,0.519c-0.242,0.29 -0.708,0.848 -1.229,1.469c-0.592,0.706 -1.587,0.917 -2.415,0.513c-1.27,-0.62 -3.141,-1.649 -4.601,-2.945c-1.046,-0.928 -2.253,-2.566 -3.04,-3.711c-0.529,-0.77 -0.462,-1.8 0.169,-2.489c0.279,-0.305 0.561,-0.613 0.765,-0.851c0.487,-0.569 0.617,-1.36 0.334,-2.054c-0.58,-1.416 -1.546,-3.766 -1.933,-4.622z" fill-rule="evenodd" fill="#fff"/>
  <path id="svg_5" d="m52.91,30l-8.91,0c-1.11,0 -2,-0.89 -2,-2.01l0,-0.05c0,-1.07 0.87,-1.94 1.94,-1.94l0.56,0c0.83,0 1.5,-0.67 1.5,-1.5s-0.67,-1.5 -1.5,-1.5l-8,0c-0.69,0 -1.32,-0.28 -1.77,-0.73c-0.45,-0.45 -0.73,-1.08 -0.73,-1.77c0,-1.38 1.12,-2.5 2.5,-2.5l1,0c0.83,0 1.5,-0.67 1.5,-1.5s-0.67,-1.5 -1.5,-1.5l-1,0c-0.69,0 -1.32,-0.28 -1.77,-0.73c-0.45,-0.45 -0.73,-1.08 -0.73,-1.77c0,-0.5 0.15,-0.97 0.4,-1.36c4.94,0.57 9.58,2.9 12.99,6.57c3.19,3.44 5.09,7.71 5.52,12.29z" fill="url(#AhngXQ8Zf2VLA52L6fLwQc)"/>
  <path id="svg_6" d="m29.998,50.402c0.038,1.011 -0.521,1.894 -1.358,2.328c-1.46,-0.23 -2.88,-0.63 -4.27,-1.17l-0.61,-0.24c-0.4,-0.15 -0.83,-0.17 -1.24,-0.07l-10.251,2.703c-0.741,0.195 -1.417,-0.481 -1.222,-1.222l2.513,-9.531c0.12,-0.46 0.07,-0.95 -0.14,-1.38l-0.32,-0.66c-0.94,-1.94 -1.57,-4.02 -1.88,-6.16l7.28,0c0.83,0 1.5,0.67 1.5,1.5s-0.67,1.5 -1.5,1.5s-1.5,0.67 -1.5,1.5s0.67,1.5 1.5,1.5l4.5,0c1.206,0 2.163,1.062 1.972,2.316c-0.151,0.992 -1.079,1.684 -2.082,1.684l-1.39,0c-0.83,0 -1.5,0.67 -1.5,1.5c0,0.83 0.67,1.5 1.5,1.5l5.857,0c1.368,0 2.589,1.035 2.641,2.402z" fill="url(#AhngXQ8Zf2VLA52L6fLwQd)"/>
 </g>
</svg>